<?xml version="1.0" standalone="no"?>
<!DOCTYPE svg PUBLIC "-//W3C//DTD SVG 20010904//EN"
 "http://www.w3.org/TR/2001/REC-SVG-20010904/DTD/svg10.dtd">
<svg version="1.0" xmlns="http://www.w3.org/2000/svg"
 width="300.000000pt" height="300.000000pt" viewBox="0 0 300.000000 300.000000"
 preserveAspectRatio="xMidYMid meet">
<metadata>
Created by potrace 1.11, written by Peter Selinger 2001-2013
</metadata>
<g transform="translate(0.000000,300.000000) scale(0.100000,-0.100000)"
fill="#000000" stroke="none">
<path d="M799 2386 c-2 -2 -24 -6 -49 -9 -76 -10 -154 -31 -175 -47 -5 -5 -19
-10 -30 -12 -34 -5 -166 -87 -231 -141 -248 -212 -362 -545 -294 -862 38 -179
114 -320 240 -445 134 -133 283 -214 465 -251 68 -13 340 -13 340 1 0 1 11 3
25 6 52 9 158 48 220 81 213 114 375 312 441 540 25 87 33 155 32 268 -2 113
-9 165 -34 235 -11 30 -21 62 -23 71 -17 67 -112 215 -191 295 -142 144 -293
224 -490 260 -72 13 -236 20 -246 10z m207 -461 c125 -72 146 -249 42 -355
l-40 -40 17 -68 c8 -37 18 -78 21 -92 3 -14 12 -47 20 -75 8 -27 17 -64 20
-82 3 -17 13 -61 24 -97 10 -36 16 -67 12 -67 -4 -1 -100 -3 -215 -4 -186 -2
-207 0 -203 14 3 9 7 27 10 41 3 14 12 52 21 85 9 33 18 67 20 75 2 8 13 51
25 95 12 44 23 87 25 95 15 65 16 80 8 80 -17 0 -79 63 -97 97 -23 46 -30 111
-17 159 38 143 185 209 307 139z"/>
<path d="M1224 2358 c-3 -5 1 -8 9 -8 29 0 157 -74 235 -135 43 -34 100 -89
126 -121 26 -33 54 -67 62 -77 8 -9 14 -19 14 -22 0 -2 13 -26 28 -52 111
-190 146 -449 89 -668 -68 -261 -230 -468 -466 -592 -40 -22 -74 -43 -75 -49
0 -5 201 -9 519 -9 l520 -1 97 27 c167 46 295 118 395 221 54 55 153 209 153
238 0 9 3 20 8 24 4 4 7 11 8 14 0 4 6 25 12 47 6 22 14 58 17 80 4 22 8 51
11 65 6 34 5 287 -2 325 -2 17 -7 47 -9 67 -16 128 -101 299 -200 402 -112
118 -214 174 -390 217 -57 14 -1153 20 -1161 7z m1191 -840 l1 -638 -61 0
c-93 -1 -596 -1 -629 -1 -16 1 -26 4 -22 8 6 7 16 9 66 17 14 2 54 9 90 16 36
7 74 14 85 16 20 3 77 12 128 20 15 2 59 11 98 19 39 8 71 15 72 15 5 0 0
1050 -5 1055 -5 5 -125 30 -201 41 -67 10 -82 12 -82 14 0 1 -13 3 -30 4 -16
2 -56 9 -87 15 -53 11 -66 19 -53 32 2 3 145 5 317 5 l313 -1 0 -637z"/>
</g>
</svg>
